<svg xmlns="http://www.w3.org/2000/svg" xmlns:xlink="http://www.w3.org/1999/xlink" width="600" zoomAndPan="magnify" viewBox="0 0 450 149.999998" height="200" preserveAspectRatio="xMidYMid meet" version="1.0"><defs><g/><clipPath id="id1"><path d="M 30.347656 0 L 180.230469 0 L 180.230469 149.882812 L 30.347656 149.882812 Z M 30.347656 0 " clip-rule="nonzero"/></clipPath><clipPath id="id2"><path d="M 67 24.886719 L 143 24.886719 L 143 125.074219 L 67 125.074219 Z M 67 24.886719 " clip-rule="nonzero"/></clipPath></defs><g clip-path="url(#id1)"><path fill="#f97316" d="M 105.289062 0 C 63.902344 0 30.347656 33.550781 30.347656 74.941406 C 30.347656 116.328125 63.902344 149.882812 105.289062 149.882812 C 146.679688 149.882812 180.230469 116.328125 180.230469 74.941406 C 180.230469 33.550781 146.679688 0 105.289062 0 " fill-opacity="1" fill-rule="nonzero"/></g><g clip-path="url(#id2)"><path fill="#ffffff" d="M 67.761719 122.984375 L 67.761719 26.972656 C 67.761719 25.820312 68.695312 24.886719 69.84375 24.886719 L 121.136719 24.886719 C 121.679688 24.886719 122.199219 25.105469 122.589844 25.496094 L 142.199219 45.128906 C 142.589844 45.519531 142.808594 46.042969 142.808594 46.585938 L 142.808594 122.984375 C 142.808594 124.136719 141.875 125.074219 140.722656 125.074219 L 69.84375 125.074219 C 68.695312 125.074219 67.761719 124.136719 67.761719 122.984375 Z M 138.636719 120.898438 L 138.636719 49.933594 L 119.875 49.933594 C 118.726562 49.933594 117.792969 49 117.792969 47.847656 L 117.792969 29.0625 L 71.929688 29.0625 L 71.929688 120.898438 Z M 138.636719 120.898438 " fill-opacity="1" fill-rule="nonzero"/></g><path fill="#ffffff" d="M 128.214844 66.628906 L 82.351562 66.628906 C 81.203125 66.628906 80.269531 65.695312 80.269531 64.542969 C 80.269531 63.390625 81.203125 62.457031 82.351562 62.457031 L 128.214844 62.457031 C 129.367188 62.457031 130.300781 63.390625 130.300781 64.542969 C 130.300781 65.695312 129.367188 66.628906 128.214844 66.628906 Z M 111.539062 79.152344 L 82.351562 79.152344 C 81.203125 79.152344 80.269531 78.21875 80.269531 77.066406 C 80.269531 75.914062 81.203125 74.980469 82.351562 74.980469 L 111.539062 74.980469 C 112.6875 74.980469 113.621094 75.914062 113.621094 77.066406 C 113.621094 78.21875 112.6875 79.152344 111.539062 79.152344 Z M 119.875 91.675781 L 82.351562 91.675781 C 81.203125 91.675781 80.269531 90.742188 80.269531 89.589844 C 80.269531 88.4375 81.203125 87.503906 82.351562 87.503906 L 119.875 87.503906 C 121.027344 87.503906 121.960938 88.4375 121.960938 89.589844 C 121.960938 90.742188 121.027344 91.675781 119.875 91.675781 Z M 103.199219 104.199219 L 82.351562 104.199219 C 81.203125 104.199219 80.269531 103.265625 80.269531 102.113281 C 80.269531 100.960938 81.203125 100.027344 82.351562 100.027344 L 103.199219 100.027344 C 104.351562 100.027344 105.285156 100.960938 105.285156 102.113281 C 105.285156 103.265625 104.351562 104.199219 103.199219 104.199219 Z M 103.199219 104.199219 " fill-opacity="1" fill-rule="nonzero"/><g fill="#333333" fill-opacity="1"><g transform="translate(202.258238, 89.38759)"><g><path d="M 0.117188 0 L 12.207031 0 L 16.140625 -8.101562 L 39.285156 -8.101562 L 43.21875 0 L 55.308594 0 L 34.65625 -41.195312 L 21.175781 -41.195312 Z M 18.746094 -15.101562 L 27.714844 -33.671875 L 27.828125 -33.671875 L 36.679688 -15.101562 Z M 18.746094 -15.101562 "/></g></g></g><g fill="#333333" fill-opacity="1"><g transform="translate(259.583495, 89.38759)"><g><path d="M 2.3125 0 L 12.902344 0 L 12.902344 -42.929688 L 2.3125 -42.929688 Z M 2.3125 0 "/></g></g></g><g fill="#333333" fill-opacity="1"><g transform="translate(276.648289, 89.38759)"><g><path d="M 29.042969 1.15625 C 38.242188 1.15625 46.226562 -2.3125 50.21875 -7.695312 L 50.277344 -7.695312 L 50.855469 0 L 60.113281 0 L 60.113281 -23.375 L 23.027344 -23.375 L 23.027344 -17.066406 L 48.886719 -17.066406 C 48.542969 -11.109375 41.425781 -6.710938 32.226562 -6.710938 C 21.292969 -6.710938 13.710938 -12.324219 13.710938 -20.308594 C 13.710938 -28.582031 20.597656 -34.191406 30.488281 -34.191406 C 36.914062 -34.191406 42.699219 -31.359375 44.085938 -27.308594 L 54.90625 -29.332031 C 52.996094 -37.085938 42.8125 -42.351562 30.488281 -42.351562 C 13.597656 -42.351562 2.023438 -33.265625 2.023438 -20.019531 C 2.023438 -7.519531 13.074219 1.15625 29.042969 1.15625 Z M 29.042969 1.15625 "/></g></g></g><g fill="#333333" fill-opacity="1"><g transform="translate(340.625783, 89.38759)"><g><path d="M 26.035156 1.042969 C 34.191406 1.042969 42.0625 -1.15625 46.109375 -4.28125 L 42.753906 -9.605469 C 39.632812 -7.289062 33.265625 -5.554688 26.84375 -5.554688 C 20.019531 -5.554688 14 -7.867188 12.726562 -12.148438 L 45.417969 -12.148438 C 45.648438 -13.019531 45.707031 -14.175781 45.707031 -14.867188 C 45.707031 -24.300781 36.914062 -30.664062 23.953125 -30.664062 C 10.703125 -30.664062 1.445312 -24.125 1.445312 -14.925781 C 1.445312 -5.378906 11.511719 1.042969 26.035156 1.042969 Z M 12.496094 -17.300781 C 13.019531 -21.40625 17.761719 -24.359375 23.777344 -24.359375 C 29.855469 -24.359375 34.65625 -21.582031 35.003906 -17.300781 Z M 12.496094 -17.300781 "/></g></g></g><g fill="#333333" fill-opacity="1"><g transform="translate(390.662515, 89.38759)"><g><path d="M 23.085938 1.042969 C 34.078125 1.042969 42.234375 -2.371094 42.234375 -9.316406 C 42.234375 -15.160156 36.738281 -17.472656 26.960938 -18.28125 L 19.207031 -18.976562 C 14.925781 -19.382812 12.785156 -20.019531 12.785156 -21.695312 C 12.785156 -23.722656 16.71875 -24.878906 21.925781 -24.878906 C 27.480469 -24.878906 33.09375 -23.085938 36.21875 -20.65625 L 39.398438 -25.628906 C 35.117188 -28.753906 28.695312 -30.664062 22.101562 -30.664062 C 11.398438 -30.664062 3.644531 -27.308594 3.644531 -20.480469 C 3.644531 -15.160156 8.792969 -12.84375 17.878906 -12.148438 L 25.574219 -11.511719 C 30.316406 -11.050781 32.863281 -10.242188 32.863281 -8.503906 C 32.863281 -6.480469 29.160156 -5.148438 22.507812 -5.148438 C 15.101562 -5.148438 7.753906 -7.578125 4.511719 -10.933594 L 1.042969 -5.613281 C 5.035156 -1.734375 14 1.042969 23.085938 1.042969 Z M 23.085938 1.042969 "/></g></g></g></svg>